<?xml version="1.0" encoding="UTF-8" standalone="no"?>
<svg
   width="16"
   height="16"
   fill="currentColor"
   class="bi bi-list"
   viewBox="0 0 16 16"
   version="1.1"
   id="svg1"
   sodipodi:docname="list-menu.svg"
   inkscape:version="1.4.2 (f4327f4, 2025-05-13)"
   xmlns:inkscape="http://www.inkscape.org/namespaces/inkscape"
   xmlns:sodipodi="http://sodipodi.sourceforge.net/DTD/sodipodi-0.dtd"
   xmlns="http://www.w3.org/2000/svg"
   xmlns:svg="http://www.w3.org/2000/svg">
  <defs
     id="defs1" />
  <sodipodi:namedview
     id="namedview1"
     pagecolor="#ffffff"
     bordercolor="#000000"
     borderopacity="0.25"
     inkscape:showpageshadow="2"
     inkscape:pageopacity="0.0"
     inkscape:pagecheckerboard="0"
     inkscape:deskcolor="#d1d1d1"
     inkscape:zoom="48.3125"
     inkscape:cx="7.9896507"
     inkscape:cy="8"
     inkscape:window-width="1920"
     inkscape:window-height="991"
     inkscape:window-x="-9"
     inkscape:window-y="-9"
     inkscape:window-maximized="1"
     inkscape:current-layer="svg1" />
  <path
     fill-rule="evenodd"
     d="m 2.5,12.020699 a 0.5,0.5 0 0 1 0.5,-0.5 h 10 a 0.5,0.5 0 0 1 0,1 H 3 a 0.5,0.5 0 0 1 -0.5,-0.5 m 0,-4.0000004 a 0.5,0.5 0 0 1 0.5,-0.5 h 10 a 0.5,0.5 0 0 1 0,1 H 3 a 0.5,0.5 0 0 1 -0.5,-0.5 m 0,-4 a 0.5,0.5 0 0 1 0.5,-0.5 h 10 a 0.5,0.5 0 0 1 0,1 H 3 a 0.5,0.5 0 0 1 -0.5,-0.5"
     id="path1"
     style="stroke:#000000;stroke-opacity:1;stroke-width:0.7;stroke-dasharray:none" />
</svg>
